<mxfile host="app.diagrams.net" modified="2021-05-06T05:47:12.427Z" agent="5.0 (Windows NT 10.0; Win64; x64) AppleWebKit/537.36 (KHTML, like Gecko) Chrome/88.0.4324.182 Safari/537.36" etag="_ALFgwtDh4DngVvccqPr" version="14.6.10" type="github">
  <diagram id="S1iM3ITEzwRbxfh6hCQ_" name="第 1 页">
    <mxGraphModel dx="1422" dy="706" grid="1" gridSize="10" guides="1" tooltips="1" connect="1" arrows="1" fold="1" page="1" pageScale="1" pageWidth="827" pageHeight="1169" math="0" shadow="0">
      <root>
        <mxCell id="0" />
        <mxCell id="1" parent="0" />
        <mxCell id="ol9vjWlkQ87jJtS6Bt6q-12" style="edgeStyle=orthogonalEdgeStyle;rounded=0;orthogonalLoop=1;jettySize=auto;html=1;exitX=0.5;exitY=1;exitDx=0;exitDy=0;exitPerimeter=0;" parent="1" source="ol9vjWlkQ87jJtS6Bt6q-1" target="ol9vjWlkQ87jJtS6Bt6q-2" edge="1">
          <mxGeometry relative="1" as="geometry" />
        </mxCell>
        <mxCell id="ol9vjWlkQ87jJtS6Bt6q-1" value="开始" style="strokeWidth=1;html=1;shape=mxgraph.flowchart.terminator;whiteSpace=wrap;rounded=1;glass=0;fontSize=15;" parent="1" vertex="1">
          <mxGeometry x="250" y="80" width="90" height="50" as="geometry" />
        </mxCell>
        <mxCell id="ol9vjWlkQ87jJtS6Bt6q-14" style="edgeStyle=orthogonalEdgeStyle;rounded=0;orthogonalLoop=1;jettySize=auto;html=1;exitX=0.5;exitY=1;exitDx=0;exitDy=0;" parent="1" source="ol9vjWlkQ87jJtS6Bt6q-2" target="ol9vjWlkQ87jJtS6Bt6q-3" edge="1">
          <mxGeometry relative="1" as="geometry" />
        </mxCell>
        <mxCell id="ol9vjWlkQ87jJtS6Bt6q-2" value="&lt;font style=&quot;font-size: 15px&quot;&gt;进入系统主页面&lt;/font&gt;" style="rounded=0;whiteSpace=wrap;html=1;" parent="1" vertex="1">
          <mxGeometry x="235" y="150" width="120" height="40" as="geometry" />
        </mxCell>
        <mxCell id="ol9vjWlkQ87jJtS6Bt6q-15" style="edgeStyle=orthogonalEdgeStyle;rounded=0;orthogonalLoop=1;jettySize=auto;html=1;exitX=0.5;exitY=1;exitDx=0;exitDy=0;" parent="1" source="ol9vjWlkQ87jJtS6Bt6q-3" target="ol9vjWlkQ87jJtS6Bt6q-4" edge="1">
          <mxGeometry relative="1" as="geometry" />
        </mxCell>
        <mxCell id="ol9vjWlkQ87jJtS6Bt6q-3" value="&lt;font style=&quot;font-size: 15px&quot;&gt;点击&lt;br&gt;[TEAM/USECASE MANAGEMENT]&lt;/font&gt;" style="rounded=0;whiteSpace=wrap;html=1;" parent="1" vertex="1">
          <mxGeometry x="165" y="210" width="260" height="40" as="geometry" />
        </mxCell>
        <mxCell id="ol9vjWlkQ87jJtS6Bt6q-16" style="edgeStyle=orthogonalEdgeStyle;rounded=0;orthogonalLoop=1;jettySize=auto;html=1;exitX=0.5;exitY=1;exitDx=0;exitDy=0;" parent="1" source="ol9vjWlkQ87jJtS6Bt6q-4" target="ol9vjWlkQ87jJtS6Bt6q-5" edge="1">
          <mxGeometry relative="1" as="geometry" />
        </mxCell>
        <mxCell id="ol9vjWlkQ87jJtS6Bt6q-4" value="&lt;font style=&quot;font-size: 15px&quot;&gt;选择组/用例&lt;/font&gt;" style="rounded=0;whiteSpace=wrap;html=1;" parent="1" vertex="1">
          <mxGeometry x="235" y="270" width="120" height="40" as="geometry" />
        </mxCell>
        <mxCell id="ol9vjWlkQ87jJtS6Bt6q-17" style="edgeStyle=orthogonalEdgeStyle;rounded=0;orthogonalLoop=1;jettySize=auto;html=1;exitX=0.5;exitY=1;exitDx=0;exitDy=0;" parent="1" source="ol9vjWlkQ87jJtS6Bt6q-5" target="ol9vjWlkQ87jJtS6Bt6q-9" edge="1">
          <mxGeometry relative="1" as="geometry" />
        </mxCell>
        <mxCell id="ol9vjWlkQ87jJtS6Bt6q-18" style="edgeStyle=orthogonalEdgeStyle;rounded=0;orthogonalLoop=1;jettySize=auto;html=1;exitX=0.5;exitY=1;exitDx=0;exitDy=0;" parent="1" source="ol9vjWlkQ87jJtS6Bt6q-5" target="ol9vjWlkQ87jJtS6Bt6q-7" edge="1">
          <mxGeometry relative="1" as="geometry" />
        </mxCell>
        <mxCell id="ol9vjWlkQ87jJtS6Bt6q-5" value="&lt;font style=&quot;font-size: 15px&quot;&gt;点击&lt;br&gt;[MEMBERSHIP MANAGEMENT]&lt;/font&gt;" style="rounded=0;whiteSpace=wrap;html=1;" parent="1" vertex="1">
          <mxGeometry x="165" y="330" width="260" height="40" as="geometry" />
        </mxCell>
        <mxCell id="ol9vjWlkQ87jJtS6Bt6q-22" style="edgeStyle=orthogonalEdgeStyle;rounded=0;orthogonalLoop=1;jettySize=auto;html=1;exitX=0.5;exitY=1;exitDx=0;exitDy=0;" parent="1" source="ol9vjWlkQ87jJtS6Bt6q-6" target="ol9vjWlkQ87jJtS6Bt6q-11" edge="1">
          <mxGeometry relative="1" as="geometry">
            <Array as="points">
              <mxPoint x="200" y="600" />
              <mxPoint x="280" y="600" />
            </Array>
          </mxGeometry>
        </mxCell>
        <mxCell id="ol9vjWlkQ87jJtS6Bt6q-6" value="&lt;font style=&quot;font-size: 15px&quot;&gt;点击&lt;br&gt;[DELETE MEMBER]&lt;/font&gt;" style="rounded=0;whiteSpace=wrap;html=1;" parent="1" vertex="1">
          <mxGeometry x="120" y="470" width="160" height="40" as="geometry" />
        </mxCell>
        <mxCell id="ol9vjWlkQ87jJtS6Bt6q-20" style="edgeStyle=orthogonalEdgeStyle;rounded=0;orthogonalLoop=1;jettySize=auto;html=1;exitX=0.5;exitY=1;exitDx=0;exitDy=0;" parent="1" source="ol9vjWlkQ87jJtS6Bt6q-7" target="ol9vjWlkQ87jJtS6Bt6q-8" edge="1">
          <mxGeometry relative="1" as="geometry" />
        </mxCell>
        <mxCell id="ol9vjWlkQ87jJtS6Bt6q-7" value="&lt;font style=&quot;font-size: 15px&quot;&gt;点击[ADD MEMBER]&lt;/font&gt;" style="rounded=0;whiteSpace=wrap;html=1;" parent="1" vertex="1">
          <mxGeometry x="320" y="410" width="170" height="40" as="geometry" />
        </mxCell>
        <mxCell id="ol9vjWlkQ87jJtS6Bt6q-21" style="edgeStyle=orthogonalEdgeStyle;rounded=0;orthogonalLoop=1;jettySize=auto;html=1;exitX=0.5;exitY=1;exitDx=0;exitDy=0;" parent="1" source="ol9vjWlkQ87jJtS6Bt6q-8" target="ol9vjWlkQ87jJtS6Bt6q-10" edge="1">
          <mxGeometry relative="1" as="geometry" />
        </mxCell>
        <mxCell id="ol9vjWlkQ87jJtS6Bt6q-8" value="&lt;font style=&quot;font-size: 15px&quot;&gt;输入员工号&lt;/font&gt;" style="rounded=0;whiteSpace=wrap;html=1;" parent="1" vertex="1">
          <mxGeometry x="340" y="470" width="120" height="40" as="geometry" />
        </mxCell>
        <mxCell id="ol9vjWlkQ87jJtS6Bt6q-19" style="edgeStyle=orthogonalEdgeStyle;rounded=0;orthogonalLoop=1;jettySize=auto;html=1;exitX=0.5;exitY=1;exitDx=0;exitDy=0;" parent="1" source="ol9vjWlkQ87jJtS6Bt6q-9" target="ol9vjWlkQ87jJtS6Bt6q-6" edge="1">
          <mxGeometry relative="1" as="geometry" />
        </mxCell>
        <mxCell id="ol9vjWlkQ87jJtS6Bt6q-9" value="&lt;font style=&quot;font-size: 15px&quot;&gt;选择人员&lt;/font&gt;" style="rounded=0;whiteSpace=wrap;html=1;" parent="1" vertex="1">
          <mxGeometry x="140" y="410" width="120" height="40" as="geometry" />
        </mxCell>
        <mxCell id="ol9vjWlkQ87jJtS6Bt6q-23" style="edgeStyle=orthogonalEdgeStyle;rounded=0;orthogonalLoop=1;jettySize=auto;html=1;" parent="1" source="ol9vjWlkQ87jJtS6Bt6q-10" target="ol9vjWlkQ87jJtS6Bt6q-11" edge="1">
          <mxGeometry relative="1" as="geometry">
            <mxPoint x="400" y="583" as="sourcePoint" />
            <mxPoint x="280" y="633" as="targetPoint" />
            <Array as="points">
              <mxPoint x="400" y="600" />
              <mxPoint x="280" y="600" />
            </Array>
          </mxGeometry>
        </mxCell>
        <mxCell id="ol9vjWlkQ87jJtS6Bt6q-10" value="&lt;font style=&quot;font-size: 15px&quot;&gt;确认添加&lt;/font&gt;" style="rounded=0;whiteSpace=wrap;html=1;" parent="1" vertex="1">
          <mxGeometry x="340" y="540" width="120" height="40" as="geometry" />
        </mxCell>
        <mxCell id="ol9vjWlkQ87jJtS6Bt6q-11" value="结束" style="strokeWidth=1;html=1;shape=mxgraph.flowchart.terminator;whiteSpace=wrap;rounded=1;glass=0;fontSize=15;" parent="1" vertex="1">
          <mxGeometry x="235" y="630" width="90" height="50" as="geometry" />
        </mxCell>
      </root>
    </mxGraphModel>
  </diagram>
</mxfile>
